<?xml version="1.0" encoding="utf-8"?>
<!-- Generator: Adobe Illustrator 25.2.1, SVG Export Plug-In . SVG Version: 6.00 Build 0)  -->
<svg version="1.1" id="Réteg_1" xmlns="http://www.w3.org/2000/svg" xmlns:xlink="http://www.w3.org/1999/xlink" x="0px" y="0px"
	 viewBox="0 0 80 80" style="enable-background:new 0 0 80 80;" xml:space="preserve">
<style type="text/css">
	.st0{fill:url(#XMLID_3_);}
	.st1{fill:#C9C9C9;}
	.st2{fill:#E2E2E2;}
	.st3{clip-path:url(#SVGID_2_);}
	.st4{fill:url(#SVGID_5_);}
	.st5{fill:none;stroke:#000000;stroke-miterlimit:10;}
</style>
<linearGradient id="XMLID_3_" gradientUnits="userSpaceOnUse" x1="19.6016" y1="43.4742" x2="57.7751" y2="43.4742">
	<stop  offset="0" style="stop-color:#FFFFFF"/>
	<stop  offset="1" style="stop-color:#000000"/>
</linearGradient>
<circle id="XMLID_1_" class="st0" cx="38.7" cy="43.5" r="19.1"/>
<circle class="st1" cx="46.6" cy="40.3" r="8.9"/>
<circle class="st2" cx="46.9" cy="37.2" r="2.2"/>
<g>
	<g>
		<defs>
			<path id="SVGID_1_" d="M46.3,23.7c0-0.6-0.5-1.1-1.1-1.1H33c-0.6,0-1.1,0.5-1.1,1.1v1.4c0,0.1,0,0.3,0.1,0.4
				c-0.1,0.1-0.1,0.2-0.1,0.3c0,1.2,3.2,2.1,7.2,2.1s7.2-1,7.2-2.1c0-0.1,0-0.2-0.1-0.3c0.1-0.1,0.1-0.3,0.1-0.4L46.3,23.7
				L46.3,23.7z"/>
		</defs>
		<clipPath id="SVGID_2_">
			<use xlink:href="#SVGID_1_"  style="overflow:visible;"/>
		</clipPath>
		<g class="st3">
			<g>
				<defs>
					<rect id="SVGID_3_" x="26.9" y="17.6" width="24.4" height="15.4"/>
				</defs>
				<clipPath id="SVGID_4_">
					<use xlink:href="#SVGID_3_"  style="overflow:visible;"/>
				</clipPath>
				<g style="clip-path:url(#SVGID_4_);">
					
						<image style="overflow:visible;" width="52" height="33" xlink:href="CE8CCE1D.jpg"  transform="matrix(0.48 0 0 0.48 26.4 17.6)">
					</image>
				</g>
			</g>
		</g>
	</g>
</g>
<linearGradient id="SVGID_5_" gradientUnits="userSpaceOnUse" x1="31.9398" y1="23.3649" x2="46.2549" y2="23.3649">
	<stop  offset="0" style="stop-color:#FFFFFF"/>
	<stop  offset="1" style="stop-color:#000000"/>
</linearGradient>
<ellipse class="st4" cx="39.1" cy="23.4" rx="7.2" ry="2.1"/>
<path class="st5" d="M39.3,23c0,0-0.7-2.9,2.3-5.3s3.7-2.6,3.7-2.6"/>
</svg>
