<?xml version="1.0" encoding="utf-8"?>
<!-- Generator: Adobe Illustrator 25.2.1, SVG Export Plug-In . SVG Version: 6.00 Build 0)  -->
<svg version="1.1" id="Réteg_1" xmlns="http://www.w3.org/2000/svg" xmlns:xlink="http://www.w3.org/1999/xlink" x="0px" y="0px"
	 viewBox="0 0 80 80" style="enable-background:new 0 0 80 80;" xml:space="preserve">
<style type="text/css">
	.st0{fill:#71B62B;stroke:#000000;stroke-miterlimit:10;}
	.st1{fill:#FF9831;stroke:#000000;stroke-miterlimit:10;}
	.st2{fill:#FDCA5C;}
</style>
<path class="st0" d="M59.1,22.9c0,0,1.2,9.1,9,6.3s4.2-4.5,10.3-5.9c1.5-0.4-3.7-0.6-8.4-4.4C65.1,14.9,60.7,18.3,59.1,22.9z"/>
<path class="st0" d="M56.7,21.9c0,0,8.8-2.6,4.8-9.9s-5-2.4-7.5-9.2c-0.5-1.4-1.3,3.1-3.1,9C49.3,17.7,51.9,21,56.7,21.9z"/>
<path class="st1" d="M5.4,75.3c0,0,8.1-29.6,18.2-42.7S45.5,6.1,57.4,16.3s5.7,17.8,5.7,17.8S53.4,54.3,5.4,75.3z"/>
<path class="st0" d="M59.6,24.4c0,0,5.7,1.1,5.6-4.2c-0.1-5.3-1.1-4.4-1.5-7.4c-0.1-1-1.6,1.4-4.4,4.2S57.2,22.5,59.6,24.4z"/>
<path class="st2" d="M13.6,60c0,0,4.6-15.8,16.2-27.2s15.4-16.5,18.2-14.5s7.7,3.5,4.6,7S25.5,52.9,13.6,60z"/>
</svg>
