<?xml version="1.0" encoding="utf-8"?>
<!-- Generator: Adobe Illustrator 25.2.1, SVG Export Plug-In . SVG Version: 6.00 Build 0)  -->
<svg version="1.1" id="Réteg_1" xmlns="http://www.w3.org/2000/svg" xmlns:xlink="http://www.w3.org/1999/xlink" x="0px" y="0px"
	 viewBox="0 0 80 80" style="enable-background:new 0 0 80 80;" xml:space="preserve">
<style type="text/css">
	.st0{fill:#00DF29;stroke:#000000;stroke-width:0.5;stroke-miterlimit:10;}
</style>
<g id="Réteg_1_1_">
	<path class="st0" d="M51.6,9.9c-8.3-3.2-17.6,0.9-20.9,9.2c-2.8,7.3,0,15.4,6.4,19.5l-3.8,9.8l-10.1-3.9c-1.1-0.4-2.4,0.1-2.8,1.3
		l0,0c-0.4,1.1,0.1,2.4,1.3,2.8l10.1,3.9l-0.9,2.4l-6-2.3c-1.1-0.4-2.4,0.1-2.8,1.3l0,0c-0.4,1.1,0.1,2.4,1.3,2.8l6,2.3l-0.9,2.2
		c-0.2-0.1-0.4-0.2-0.7-0.3l-8-3.1c-1.9-0.7-4,0.2-4.8,2.1s0.2,4,2.1,4.8l8,3.1c0.2,0.1,0.5,0.2,0.7,0.2v0.1l5.8,2.2L43,40.8
		c7.4,1.3,15-2.7,17.9-10C64,22.5,59.9,13.1,51.6,9.9z M41.7,35.4c-5.8-2.2-8.6-8.7-6.4-14.5s8.7-8.6,14.5-6.4s8.6,8.7,6.4,14.5
		S47.5,37.6,41.7,35.4z"/>
</g>
<g id="Réteg_2_1_">
</g>
</svg>
