<?xml version="1.0" encoding="utf-8"?>
<!-- Generator: Adobe Illustrator 25.2.1, SVG Export Plug-In . SVG Version: 6.00 Build 0)  -->
<svg version="1.1" id="Réteg_1" xmlns="http://www.w3.org/2000/svg" xmlns:xlink="http://www.w3.org/1999/xlink" x="0px" y="0px"
	 viewBox="0 0 80 80" style="enable-background:new 0 0 80 80;" xml:space="preserve">
<style type="text/css">
	.st0{fill:#DF4100;stroke:#000000;stroke-width:0.5;stroke-miterlimit:10;}
</style>
<path class="st0" d="M61,32.3c0-7.5-6.1-13.5-13.5-13.5c-3.2,0-6.2,1.1-8.5,3c0,0,0,0,0,0c0,0,0,0,0,0c-2.3-1.9-5.3-3-8.5-3
	c-7.5,0-13.5,6.1-13.5,13.5c0,0.5,0,1,0.1,1.5c0,0,0,0,0,0c-0.3,4.8,5.4,11.6,13.5,18.6c6.1,5.3,8,11.2,8.5,13.8
	c0.5-2.6,2.4-8.5,8.5-13.8c8.1-7,13.8-13.8,13.5-18.6c0,0,0,0,0,0C60.9,33.3,61,32.8,61,32.3z"/>
</svg>
