<?xml version="1.0" encoding="utf-8"?>
<!-- Generator: Adobe Illustrator 25.2.1, SVG Export Plug-In . SVG Version: 6.00 Build 0)  -->
<svg version="1.1" id="Réteg_1" xmlns="http://www.w3.org/2000/svg" xmlns:xlink="http://www.w3.org/1999/xlink" x="0px" y="0px"
	 viewBox="0 0 80 80" style="enable-background:new 0 0 80 80;" xml:space="preserve">
<style type="text/css">
	.st0{fill:#AD0000;}
	.st1{fill:#D30F0F;}
	.st2{fill:#890000;}
</style>
<rect class="st0" width="80" height="10"/>
<rect y="10" class="st1" width="80" height="10"/>
<path class="st1" d="M25.2,9.3L2.7,8.8c-0.8,0-1.4-0.6-1.4-1.4l0.1-4.7c0-0.8,0.6-1.4,1.4-1.4l22.5,0.5c0.8,0,1.4,0.6,1.4,1.4
	L26.6,8C26.6,8.7,25.9,9.3,25.2,9.3z"/>
<path class="st1" d="M51.7,8.5L29.2,9.2c-0.8,0-1.4-0.6-1.4-1.3l-0.2-4.7c0-0.8,0.6-1.4,1.3-1.4L51.4,1c0.8,0,1.4,0.6,1.4,1.3
	L53,7.1C53,7.8,52.4,8.5,51.7,8.5z"/>
<path class="st1" d="M77.8,8.9L55.3,8.4C54.6,8.4,54,7.8,54,7l0.1-4.7c0-0.8,0.6-1.4,1.4-1.4L78,1.5c0.8,0,1.4,0.6,1.4,1.4l-0.1,4.7
	C79.2,8.3,78.6,8.9,77.8,8.9z"/>
<path class="st2" d="M25.2,18.7L2.7,18.2c-0.8,0-1.4-0.6-1.4-1.4l0.1-4.7c0-0.8,0.6-1.4,1.4-1.4l22.5,0.5c0.8,0,1.4,0.6,1.4,1.4
	l-0.1,4.7C26.6,18.1,25.9,18.7,25.2,18.7z"/>
<path class="st2" d="M51.7,17.9l-22.5,0.7c-0.8,0-1.4-0.6-1.4-1.3l-0.2-4.7c0-0.8,0.6-1.4,1.3-1.4l22.5-0.7c0.8,0,1.4,0.6,1.4,1.3
	l0.2,4.7C53,17.2,52.4,17.9,51.7,17.9z"/>
<path class="st2" d="M77.8,18.3l-22.5-0.5c-0.8,0-1.4-0.6-1.4-1.4l0.1-4.7c0-0.8,0.6-1.4,1.4-1.4L78,10.8c0.8,0,1.4,0.6,1.4,1.4
	L79.2,17C79.2,17.7,78.6,18.3,77.8,18.3z"/>
<rect y="20" class="st0" width="80" height="10"/>
<rect y="30" class="st1" width="80" height="10"/>
<path class="st1" d="M25.2,29.3L2.7,28.8c-0.8,0-1.4-0.6-1.4-1.4l0.1-4.7c0-0.8,0.6-1.4,1.4-1.4l22.5,0.5c0.8,0,1.4,0.6,1.4,1.4
	L26.6,28C26.6,28.7,25.9,29.3,25.2,29.3z"/>
<path class="st1" d="M51.7,28.5l-22.5,0.7c-0.8,0-1.4-0.6-1.4-1.3l-0.2-4.7c0-0.8,0.6-1.4,1.3-1.4L51.4,21c0.8,0,1.4,0.6,1.4,1.3
	l0.2,4.7C53,27.8,52.4,28.5,51.7,28.5z"/>
<path class="st1" d="M77.8,28.9l-22.5-0.5c-0.8,0-1.4-0.6-1.4-1.4l0.1-4.7c0-0.8,0.6-1.4,1.4-1.4L78,21.5c0.8,0,1.4,0.6,1.4,1.4
	l-0.1,4.7C79.2,28.3,78.6,28.9,77.8,28.9z"/>
<path class="st2" d="M25.2,38.7L2.7,38.2c-0.8,0-1.4-0.6-1.4-1.4l0.1-4.7c0-0.8,0.6-1.4,1.4-1.4l22.5,0.5c0.8,0,1.4,0.6,1.4,1.4
	l-0.1,4.7C26.6,38.1,25.9,38.7,25.2,38.7z"/>
<path class="st2" d="M51.7,37.9l-22.5,0.7c-0.8,0-1.4-0.6-1.4-1.3l-0.2-4.7c0-0.8,0.6-1.4,1.3-1.4l22.5-0.7c0.8,0,1.4,0.6,1.4,1.3
	l0.2,4.7C53,37.2,52.4,37.9,51.7,37.9z"/>
<path class="st2" d="M77.8,38.3l-22.5-0.5c-0.8,0-1.4-0.6-1.4-1.4l0.1-4.7c0-0.8,0.6-1.4,1.4-1.4L78,30.8c0.8,0,1.4,0.6,1.4,1.4
	L79.2,37C79.2,37.7,78.6,38.3,77.8,38.3z"/>
<rect y="20" class="st0" width="80" height="10"/>
<rect y="30" class="st1" width="80" height="10"/>
<path class="st1" d="M25.2,29.3L2.7,28.8c-0.8,0-1.4-0.6-1.4-1.4l0.1-4.7c0-0.8,0.6-1.4,1.4-1.4l22.5,0.5c0.8,0,1.4,0.6,1.4,1.4
	L26.6,28C26.6,28.7,25.9,29.3,25.2,29.3z"/>
<path class="st1" d="M51.7,28.5l-22.5,0.7c-0.8,0-1.4-0.6-1.4-1.3l-0.2-4.7c0-0.8,0.6-1.4,1.3-1.4L51.4,21c0.8,0,1.4,0.6,1.4,1.3
	l0.2,4.7C53,27.8,52.4,28.5,51.7,28.5z"/>
<path class="st1" d="M77.8,28.9l-22.5-0.5c-0.8,0-1.4-0.6-1.4-1.4l0.1-4.7c0-0.8,0.6-1.4,1.4-1.4L78,21.5c0.8,0,1.4,0.6,1.4,1.4
	l-0.1,4.7C79.2,28.3,78.6,28.9,77.8,28.9z"/>
<path class="st2" d="M25.2,38.7L2.7,38.2c-0.8,0-1.4-0.6-1.4-1.4l0.1-4.7c0-0.8,0.6-1.4,1.4-1.4l22.5,0.5c0.8,0,1.4,0.6,1.4,1.4
	l-0.1,4.7C26.6,38.1,25.9,38.7,25.2,38.7z"/>
<path class="st2" d="M51.4,38.5L29,38c-0.8,0-1.4-0.6-1.4-1.4l0.1-4.7c0-0.8,0.6-1.4,1.4-1.4L51.6,31c0.8,0,1.4,0.6,1.4,1.4
	l-0.1,4.7C52.8,37.9,52.2,38.5,51.4,38.5z"/>
<path class="st2" d="M77.9,38.1H55.4c-0.8,0-1.4-0.6-1.4-1.4V32c0-0.8,0.6-1.4,1.4-1.4h22.5c0.8,0,1.4,0.6,1.4,1.4v4.7
	C79.3,37.5,78.7,38.1,77.9,38.1z"/>
<rect y="40" class="st0" width="80" height="10"/>
<rect y="50" class="st1" width="80" height="10"/>
<path class="st1" d="M25.2,49.3L2.7,48.8c-0.8,0-1.4-0.6-1.4-1.4l0.1-4.7c0-0.8,0.6-1.4,1.4-1.4l22.5,0.5c0.8,0,1.4,0.6,1.4,1.4
	L26.6,48C26.6,48.7,25.9,49.3,25.2,49.3z"/>
<path class="st1" d="M51.4,49.1L29,48.6c-0.8,0-1.4-0.6-1.4-1.4l0.1-4.7c0-0.8,0.6-1.4,1.4-1.4l22.5,0.5c0.8,0,1.4,0.6,1.4,1.4
	l-0.1,4.7C52.8,48.5,52.2,49.1,51.4,49.1z"/>
<path class="st1" d="M77.8,48.9l-22.5-0.5c-0.8,0-1.4-0.6-1.4-1.4l0.1-4.7c0-0.8,0.6-1.4,1.4-1.4L78,41.5c0.8,0,1.4,0.6,1.4,1.4
	l-0.1,4.7C79.2,48.3,78.6,48.9,77.8,48.9z"/>
<path class="st2" d="M25.2,58.7L2.7,58.2c-0.8,0-1.4-0.6-1.4-1.4l0.1-4.7c0-0.8,0.6-1.4,1.4-1.4l22.5,0.5c0.8,0,1.4,0.6,1.4,1.4
	l-0.1,4.7C26.6,58.1,25.9,58.7,25.2,58.7z"/>
<path class="st2" d="M51.5,58.3H29.1c-0.8,0-1.4-0.6-1.4-1.4v-4.7c0-0.8,0.6-1.4,1.4-1.4h22.5c0.8,0,1.4,0.6,1.4,1.4v4.7
	C52.9,57.6,52.3,58.3,51.5,58.3z"/>
<path class="st2" d="M78,58.7l-22.5,0.7c-0.8,0-1.4-0.6-1.4-1.3L54,53.4c0-0.8,0.6-1.4,1.3-1.4l22.5-0.7c0.8,0,1.4,0.6,1.4,1.3
	l0.2,4.7C79.4,58,78.8,58.7,78,58.7z"/>
<rect y="60" class="st0" width="80" height="10"/>
<rect y="70" class="st1" width="80" height="10"/>
<path class="st1" d="M25.2,69.3L2.7,68.8c-0.8,0-1.4-0.6-1.4-1.4l0.1-4.7c0-0.8,0.6-1.4,1.4-1.4l22.5,0.5c0.8,0,1.4,0.6,1.4,1.4
	L26.6,68C26.6,68.7,25.9,69.3,25.2,69.3z"/>
<path class="st1" d="M51.7,68.5l-22.5,0.7c-0.8,0-1.4-0.6-1.4-1.3l-0.2-4.7c0-0.8,0.6-1.4,1.3-1.4L51.4,61c0.8,0,1.4,0.6,1.4,1.3
	l0.2,4.7C53,67.8,52.4,68.5,51.7,68.5z"/>
<path class="st1" d="M77.8,68.9l-22.5-0.5c-0.8,0-1.4-0.6-1.4-1.4l0.1-4.7c0-0.8,0.6-1.4,1.4-1.4L78,61.5c0.8,0,1.4,0.6,1.4,1.4
	l-0.1,4.7C79.2,68.3,78.6,68.9,77.8,68.9z"/>
<path class="st2" d="M25.2,78.7L2.7,78.2c-0.8,0-1.4-0.6-1.4-1.4l0.1-4.7c0-0.8,0.6-1.4,1.4-1.4l22.5,0.5c0.8,0,1.4,0.6,1.4,1.4
	l-0.1,4.7C26.6,78.1,25.9,78.7,25.2,78.7z"/>
<path class="st2" d="M51.7,77.9l-22.5,0.7c-0.8,0-1.4-0.6-1.4-1.3l-0.2-4.7c0-0.8,0.6-1.4,1.3-1.4l22.5-0.7c0.8,0,1.4,0.6,1.4,1.3
	l0.2,4.7C53,77.2,52.4,77.9,51.7,77.9z"/>
<path class="st2" d="M77.8,78.3l-22.5-0.5c-0.8,0-1.4-0.6-1.4-1.4l0.1-4.7c0-0.8,0.6-1.4,1.4-1.4L78,70.8c0.8,0,1.4,0.6,1.4,1.4
	L79.2,77C79.2,77.7,78.6,78.3,77.8,78.3z"/>
<rect y="60" class="st0" width="80" height="10"/>
<rect y="70" class="st1" width="80" height="10"/>
<path class="st1" d="M25.2,69.3L2.7,68.8c-0.8,0-1.4-0.6-1.4-1.4l0.1-4.7c0-0.8,0.6-1.4,1.4-1.4l22.5,0.5c0.8,0,1.4,0.6,1.4,1.4
	L26.6,68C26.6,68.7,25.9,69.3,25.2,69.3z"/>
<path class="st1" d="M51.7,68.5l-22.5,0.7c-0.8,0-1.4-0.6-1.4-1.3l-0.2-4.7c0-0.8,0.6-1.4,1.3-1.4L51.4,61c0.8,0,1.4,0.6,1.4,1.3
	l0.2,4.7C53,67.8,52.4,68.5,51.7,68.5z"/>
<path class="st1" d="M77.8,68.9l-22.5-0.5c-0.8,0-1.4-0.6-1.4-1.4l0.1-4.7c0-0.8,0.6-1.4,1.4-1.4L78,61.5c0.8,0,1.4,0.6,1.4,1.4
	l-0.1,4.7C79.2,68.3,78.6,68.9,77.8,68.9z"/>
<path class="st2" d="M25.2,78.7L2.7,78.2c-0.8,0-1.4-0.6-1.4-1.4l0.1-4.7c0-0.8,0.6-1.4,1.4-1.4l22.5,0.5c0.8,0,1.4,0.6,1.4,1.4
	l-0.1,4.7C26.6,78.1,25.9,78.7,25.2,78.7z"/>
<path class="st2" d="M51.7,77.9l-22.5,0.7c-0.8,0-1.4-0.6-1.4-1.3l-0.2-4.7c0-0.8,0.6-1.4,1.3-1.4l22.5-0.7c0.8,0,1.4,0.6,1.4,1.3
	l0.2,4.7C53,77.2,52.4,77.9,51.7,77.9z"/>
<path class="st2" d="M77.8,78.3l-22.5-0.5c-0.8,0-1.4-0.6-1.4-1.4l0.1-4.7c0-0.8,0.6-1.4,1.4-1.4L78,70.8c0.8,0,1.4,0.6,1.4,1.4
	L79.2,77C79.2,77.7,78.6,78.3,77.8,78.3z"/>
</svg>
