<?xml version="1.0" encoding="utf-8"?>
<!-- Generator: Adobe Illustrator 25.2.1, SVG Export Plug-In . SVG Version: 6.00 Build 0)  -->
<svg version="1.1" xmlns="http://www.w3.org/2000/svg" xmlns:xlink="http://www.w3.org/1999/xlink" x="0px" y="0px"
	 viewBox="0 0 800 800" style="enable-background:new 0 0 800 800;" xml:space="preserve">
<style type="text/css">
	.st0{fill:#BC6518;}
	.st1{fill:#EF8721;}
	.st2{fill:#010202;}
</style>
<g id="Réteg_2">
	<rect x="39.44" y="132.51" class="st0" width="727.02" height="57.95"/>
	<rect x="35.93" y="606.66" class="st0" width="727.02" height="57.95"/>
</g>
<g id="Réteg_1">
	<polygon class="st1" points="160.61,708.51 79.83,740.12 79.83,62.27 139.54,62.27 	"/>
	<polygon class="st1" points="306.37,738.93 246.66,738.93 220.32,51.73 306.37,61.07 	"/>
	<polygon class="st1" points="517.1,734.26 457.39,734.26 434.56,79.83 546.95,62.27 	"/>
	<polygon class="st1" points="696.22,738.93 636.51,738.93 636.51,61.07 726.07,71.05 	"/>
	<circle class="st2" cx="59.54" cy="143.86" r="4.54"/>
	<circle class="st2" cx="64.09" cy="177.43" r="4.54"/>
	<circle class="st2" cx="744.83" cy="178.42" r="4.54"/>
	<circle class="st2" cx="745.65" cy="144.55" r="4.54"/>
	<circle class="st2" cx="736.92" cy="652.57" r="4.54"/>
	<circle class="st2" cx="737.75" cy="618.7" r="4.54"/>
	<circle class="st2" cx="54.59" cy="652.57" r="4.54"/>
	<circle class="st2" cx="55.41" cy="618.7" r="4.54"/>
</g>
</svg>
